<svg width="694" height="340" fill="none" xmlns="http://www.w3.org/2000/svg"><g filter="url('#filter0_f_7_67')"><ellipse cx="248" cy="73.63" rx="214" ry="39.63" fill="#101010" fill-opacity=".3"/></g><ellipse cx="442" cy="321" rx="16" ry="19" fill="#D9D9D9" fill-opacity=".33"/><path d="M452 313.353a7.06 7.06 0 0 1-2.352.812c.841-.624 1.492-1.612 1.798-2.8-.794.588-1.674 1-2.601 1.235-.755-1.012-1.816-1.6-3.021-1.6-2.247 0-4.082 2.259-4.082 5.047 0 .4.038.788.105 1.153-3.403-.212-6.434-2.224-8.451-5.271a5.899 5.899 0 0 0-.555 2.53c0 1.753.717 3.306 1.826 4.188-.678 0-1.309-.235-1.864-.588v.035c0 2.447 1.415 4.494 3.289 4.953a3.295 3.295 0 0 1-1.845.082c.259 1.003.768 1.881 1.454 2.51.686.629 1.515.977 2.37.996-1.45 1.413-3.247 2.176-5.096 2.165-.325 0-.65-.024-.975-.071 1.816 1.436 3.977 2.271 6.291 2.271 7.533 0 11.673-7.694 11.673-14.365 0-.223 0-.435-.01-.659.803-.705 1.492-1.6 2.046-2.623Z" fill="#000" fill-opacity=".75"/><ellipse cx="587" cy="321" rx="16" ry="19" fill="#D9D9D9" fill-opacity=".33"/><path d="M597 321.03c0-6.641-4.48-12.03-10-12.03s-10 5.389-10 12.03c0 5.823 3.44 10.671 8 11.79v-8.181h-2v-3.609h2v-3.007c0-2.322 1.57-4.211 3.5-4.211h2.5v3.609h-2c-.55 0-1 .541-1 1.203v2.406h3v3.609h-3V333c5.05-.602 9-5.726 9-11.97Z" fill="#000" fill-opacity=".75"/><ellipse cx="515" cy="321" rx="16" ry="19" fill="#D9D9D9" fill-opacity=".33"/><path d="M510.8 309h8.4c3.2 0 5.8 3.12 5.8 6.96v10.08c0 1.846-.611 3.616-1.699 4.921-1.087 1.306-2.563 2.039-4.101 2.039h-8.4c-3.2 0-5.8-3.12-5.8-6.96v-10.08c0-1.846.611-3.616 1.699-4.921 1.087-1.306 2.563-2.039 4.101-2.039Zm-.2 2.4c-.955 0-1.87.455-2.546 1.265-.675.81-1.054 1.909-1.054 3.055v10.56c0 2.388 1.61 4.32 3.6 4.32h8.8c.955 0 1.87-.455 2.546-1.265.675-.81 1.054-1.909 1.054-3.055v-10.56c0-2.388-1.61-4.32-3.6-4.32h-8.8Zm9.65 1.8c.332 0 .649.158.884.439.234.282.366.663.366 1.061 0 .398-.132.779-.366 1.061-.235.281-.552.439-.884.439-.332 0-.649-.158-.884-.439A1.669 1.669 0 0 1 519 314.7c0-.398.132-.779.366-1.061.235-.281.552-.439.884-.439ZM515 315c1.326 0 2.598.632 3.536 1.757.937 1.126 1.464 2.652 1.464 4.243 0 1.591-.527 3.117-1.464 4.243-.938 1.125-2.21 1.757-3.536 1.757s-2.598-.632-3.536-1.757c-.937-1.126-1.464-2.652-1.464-4.243 0-1.591.527-3.117 1.464-4.243.938-1.125 2.21-1.757 3.536-1.757Zm0 2.4c-.796 0-1.559.379-2.121 1.054-.563.676-.879 1.591-.879 2.546 0 .955.316 1.87.879 2.546.562.675 1.325 1.054 2.121 1.054s1.559-.379 2.121-1.054c.563-.676.879-1.591.879-2.546 0-.955-.316-1.87-.879-2.546-.562-.675-1.325-1.054-2.121-1.054Z" fill="#000" fill-opacity=".75"/><defs><filter id="filter0_f_7_67" x=".504" y=".504" width="494.991" height="146.251" filterUnits="userSpaceOnUse" color-interpolation-filters="sRGB"><feFlood flood-opacity="0" result="BackgroundImageFix"/><feBlend in="SourceGraphic" in2="BackgroundImageFix" result="shape"/><feGaussianBlur stdDeviation="16.748" result="effect1_foregroundBlur_7_67"/></filter></defs></svg>